<svg width="283" height="84" viewBox="0 0 283 84" fill="none" xmlns="http://www.w3.org/2000/svg">
<path d="M14.08 19.88C18.7307 19.8373 23.2533 20.0507 27.648 20.52C27.7333 21.928 27.7547 23.5493 27.712 25.384C27.712 27.2187 27.6053 28.904 27.392 30.44C26.5813 30.2693 25.5787 30.2053 24.384 30.248C23.1893 30.2907 21.5893 30.3547 19.584 30.44H19.456H19.392C19.392 30.4827 19.3707 30.5253 19.328 30.568C19.328 30.568 19.328 30.5893 19.328 30.632C19.2853 30.8453 19.2427 31.1867 19.2 31.656C19.2 32.0827 19.2 32.7867 19.2 33.768C19.2 34.7067 19.2 35.9653 19.2 37.544C19.2427 39.08 19.2853 41.0853 19.328 43.56C19.3707 45.992 19.4133 48.936 19.456 52.392C19.4987 55.8053 19.5627 59.8373 19.648 64.488V64.552V64.616C18.88 64.744 18.0267 64.8293 17.088 64.872C16.192 64.872 15.2747 64.872 14.336 64.872C13.44 64.872 12.544 64.872 11.648 64.872C10.752 64.872 9.92 64.936 9.152 65.064C9.10933 64.8933 9.10933 64.1253 9.152 62.76C9.19467 61.3947 9.216 59.368 9.216 56.68C9.25867 53.9493 9.23733 50.472 9.152 46.248C9.10933 42.024 8.96 36.9253 8.704 30.952L8.64 30.888C8.128 30.632 7.488 30.4827 6.72 30.44C5.952 30.3547 5.184 30.312 4.416 30.312C3.648 30.2693 2.944 30.248 2.304 30.248C1.664 30.248 1.216 30.2053 0.96 30.12C0.874667 29.9493 0.789333 29.5227 0.704 28.84C0.661333 28.1573 0.618667 27.3467 0.576 26.408C0.576 25.4267 0.576 24.3813 0.576 23.272C0.576 22.1627 0.618667 21.096 0.704 20.072C0.704 20.0293 0.682667 20.008 0.64 20.008C0.64 20.008 0.64 19.9867 0.64 19.944C4.992 19.9013 9.472 19.88 14.08 19.88ZM29.8015 37.736C30.0575 36.9253 30.2495 36.2853 30.3775 35.816C30.6762 35.176 31.1455 34.6213 31.7855 34.152C32.4682 33.6827 33.2362 33.2987 34.0895 33C34.9855 32.6587 35.9242 32.424 36.9055 32.296C37.9295 32.168 38.9535 32.104 39.9775 32.104C40.8308 32.1893 41.6415 32.2107 42.4095 32.168C43.2202 32.0827 44.0735 32.0827 44.9695 32.168C46.3348 32.2533 47.6362 32.5307 48.8735 33C50.1108 33.4267 51.1775 34.0667 52.0735 34.92C52.6708 35.304 53.1402 35.9227 53.4815 36.776C53.8228 37.6293 54.0788 38.632 54.2495 39.784C54.4202 40.8933 54.5268 42.1307 54.5695 43.496C54.6122 44.8187 54.6548 46.184 54.6975 47.592C54.6548 48.8293 54.5908 50.2373 54.5055 51.816C54.4628 53.3947 54.3562 54.9093 54.1855 56.36C54.0575 57.8107 53.8655 59.112 53.6095 60.264C53.3962 61.416 53.0762 62.2053 52.6495 62.632C51.9242 63.656 50.9642 64.3813 49.7695 64.808C48.6175 65.2347 47.3588 65.4907 45.9935 65.576C44.6282 65.704 43.2202 65.704 41.7695 65.576C40.3188 65.4907 38.9962 65.448 37.8015 65.448C35.6255 65.064 33.7908 64.1253 32.2975 62.632C31.1455 61.608 30.3562 60.328 29.9295 58.792C29.5028 57.256 29.2468 55.656 29.1615 53.992C29.0762 52.2853 29.0548 50.5787 29.0975 48.872C29.1828 47.1653 29.1615 45.608 29.0335 44.2C29.0335 43.432 29.0548 42.6853 29.0975 41.96C29.1402 41.192 29.2255 40.4027 29.3535 39.592C29.3962 39.1227 29.5455 38.504 29.8015 37.736ZM40.5535 41.96C39.6575 42.216 38.9322 42.6853 38.3775 43.368C38.1215 43.5387 37.9295 43.9653 37.8015 44.648C37.6308 46.0133 37.5455 47.3787 37.5455 48.744C37.5455 50.0667 37.5028 51.4747 37.4175 52.968C37.3748 53.9493 37.6308 54.7173 38.1855 55.272C38.7402 55.784 39.4015 56.1467 40.1695 56.36C40.9802 56.5307 41.8122 56.5733 42.6655 56.488C43.5188 56.36 44.2228 56.1467 44.7775 55.848C45.5028 55.5067 45.9935 54.8027 46.2495 53.736C46.4202 52.3707 46.5482 51.0053 46.6335 49.64C46.7615 48.232 46.6975 46.9093 46.4415 45.672C46.2282 44.1787 45.6095 43.0907 44.5855 42.408C43.5615 41.7253 42.2175 41.576 40.5535 41.96ZM69.497 75.304C69.497 75.7733 69.4757 76.4347 69.433 77.288V77.992C69.433 78.0347 69.1343 78.0773 68.537 78.12C67.9823 78.2053 67.2783 78.248 66.425 78.248C65.6143 78.2907 64.7397 78.2907 63.801 78.248C62.8623 78.248 62.0517 78.184 61.369 78.056V73.832C61.369 70.2907 61.3263 66.7493 61.241 63.208C61.1557 59.6667 61.0703 56.1893 60.985 52.776C60.9423 49.32 60.8997 45.9493 60.857 42.664C60.857 39.336 60.8997 36.136 60.985 33.064C62.3077 33.064 63.7583 33.0427 65.337 33C66.9157 32.9147 68.345 32.9573 69.625 33.128C69.6677 33.2133 69.689 33.3627 69.689 33.576C69.689 34.0027 69.689 34.344 69.689 34.6C69.7317 34.856 69.753 35.2187 69.753 35.688C69.8383 35.9013 69.9237 36.072 70.009 36.2C70.137 36.2853 70.265 36.2 70.393 35.944C71.033 34.664 71.8863 33.8533 72.953 33.512C74.0197 33.128 75.1503 33.0213 76.345 33.192C78.777 33.3627 80.697 34.0027 82.105 35.112C83.513 36.1787 84.5583 37.5653 85.241 39.272C85.9663 40.936 86.4357 42.8133 86.649 44.904C86.8623 46.9947 87.0117 49.1067 87.097 51.24C87.097 52.7333 86.9903 54.184 86.777 55.592C86.6063 57 86.3077 58.3013 85.881 59.496C85.497 60.648 84.9637 61.6507 84.281 62.504C83.641 63.3147 82.8517 63.8907 81.913 64.232C80.761 64.6587 79.481 64.9147 78.073 65C76.7077 65.128 75.4063 65.128 74.169 65C72.9317 64.9147 71.8863 64.7227 71.033 64.424C70.1797 64.1253 69.7103 63.784 69.625 63.4C69.6677 65.4053 69.689 67.0267 69.689 68.264C69.689 69.5013 69.689 70.4827 69.689 71.208C69.689 71.976 69.6677 72.552 69.625 72.936C69.625 73.3627 69.6037 73.7467 69.561 74.088C69.561 74.472 69.5397 74.8773 69.497 75.304ZM77.433 56.552C78.4997 55.784 79.1397 54.6533 79.353 53.16C79.5663 52.5627 79.6943 51.944 79.737 51.304C79.7797 50.664 79.801 50.0453 79.801 49.448C79.801 48.3813 79.673 47.3573 79.417 46.376C79.161 45.352 78.777 44.456 78.265 43.688C77.753 42.8773 77.1343 42.2373 76.409 41.768C75.6837 41.2987 74.873 41.064 73.977 41.064C72.8677 41.064 72.0143 41.2987 71.417 41.768C70.8197 42.2373 70.3503 42.8773 70.009 43.688C69.7103 44.4987 69.5183 45.48 69.433 46.632C69.3903 47.784 69.369 49.0213 69.369 50.344C69.369 52.008 69.3903 53.3307 69.433 54.312C69.5183 55.2507 69.689 55.976 69.945 56.488C70.201 57 70.585 57.3413 71.097 57.512C71.6517 57.64 72.377 57.704 73.273 57.704C75.0223 57.704 76.409 57.32 77.433 56.552ZM101.745 75.304C101.745 75.7733 101.723 76.4347 101.681 77.288V77.992C101.681 78.0347 101.382 78.0773 100.785 78.12C100.23 78.2053 99.5258 78.248 98.6725 78.248C97.8618 78.2907 96.9872 78.2907 96.0485 78.248C95.1098 78.248 94.2992 78.184 93.6165 78.056V73.832C93.6165 70.2907 93.5738 66.7493 93.4885 63.208C93.4032 59.6667 93.3178 56.1893 93.2325 52.776C93.1898 49.32 93.1472 45.9493 93.1045 42.664C93.1045 39.336 93.1472 36.136 93.2325 33.064C94.5552 33.064 96.0058 33.0427 97.5845 33C99.1632 32.9147 100.593 32.9573 101.873 33.128C101.915 33.2133 101.937 33.3627 101.937 33.576C101.937 34.0027 101.937 34.344 101.937 34.6C101.979 34.856 102.001 35.2187 102.001 35.688C102.086 35.9013 102.171 36.072 102.257 36.2C102.385 36.2853 102.513 36.2 102.641 35.944C103.281 34.664 104.134 33.8533 105.201 33.512C106.267 33.128 107.398 33.0213 108.593 33.192C111.025 33.3627 112.945 34.0027 114.353 35.112C115.761 36.1787 116.806 37.5653 117.489 39.272C118.214 40.936 118.683 42.8133 118.897 44.904C119.11 46.9947 119.259 49.1067 119.345 51.24C119.345 52.7333 119.238 54.184 119.025 55.592C118.854 57 118.555 58.3013 118.129 59.496C117.745 60.648 117.211 61.6507 116.529 62.504C115.889 63.3147 115.099 63.8907 114.161 64.232C113.009 64.6587 111.729 64.9147 110.321 65C108.955 65.128 107.654 65.128 106.417 65C105.179 64.9147 104.134 64.7227 103.281 64.424C102.427 64.1253 101.958 63.784 101.873 63.4C101.915 65.4053 101.937 67.0267 101.937 68.264C101.937 69.5013 101.937 70.4827 101.937 71.208C101.937 71.976 101.915 72.552 101.873 72.936C101.873 73.3627 101.851 73.7467 101.809 74.088C101.809 74.472 101.787 74.8773 101.745 75.304ZM109.681 56.552C110.747 55.784 111.387 54.6533 111.601 53.16C111.814 52.5627 111.942 51.944 111.985 51.304C112.027 50.664 112.049 50.0453 112.049 49.448C112.049 48.3813 111.921 47.3573 111.665 46.376C111.409 45.352 111.025 44.456 110.513 43.688C110.001 42.8773 109.382 42.2373 108.657 41.768C107.931 41.2987 107.121 41.064 106.225 41.064C105.115 41.064 104.262 41.2987 103.665 41.768C103.067 42.2373 102.598 42.8773 102.257 43.688C101.958 44.4987 101.766 45.48 101.681 46.632C101.638 47.784 101.617 49.0213 101.617 50.344C101.617 52.008 101.638 53.3307 101.681 54.312C101.766 55.2507 101.937 55.976 102.193 56.488C102.449 57 102.833 57.3413 103.345 57.512C103.899 57.64 104.625 57.704 105.521 57.704C107.27 57.704 108.657 57.32 109.681 56.552ZM153.192 31.656C153.192 32.4667 153.085 33.4693 152.872 34.664H152.808C151.528 34.8773 150.333 34.984 149.224 34.984C148.029 34.984 147.069 34.8773 146.344 34.664C146.429 34.28 146.472 33.7253 146.472 33C146.472 31.592 146.131 30.4187 145.448 29.48C144.765 28.4987 143.827 27.7947 142.632 27.368C141.779 27.0693 140.84 26.92 139.816 26.92C138.323 26.92 136.893 27.2613 135.528 27.944C134.163 28.584 133.096 29.48 132.328 30.632C131.56 31.784 131.24 33.064 131.368 34.472C131.923 37.7147 134.163 39.4 138.088 39.528C142.995 39.6987 146.685 40.8293 149.16 42.92C151.635 45.0107 152.872 47.6773 152.872 50.92C152.872 53.992 152.275 56.616 151.08 58.792C149.928 60.968 148.349 62.6107 146.344 63.72C144.339 64.7867 142.12 65.32 139.688 65.32C137.256 65.32 134.888 64.8933 132.584 64.04C130.28 63.144 128.36 61.8427 126.824 60.136C125.288 58.4293 124.413 56.4027 124.2 54.056V53.992C124.072 53.48 124.008 52.904 124.008 52.264V51.816C124.947 51.7307 125.672 51.688 126.184 51.688L128.552 51.752C129.021 51.7947 129.683 51.816 130.536 51.816C130.493 53.5227 131.005 54.9733 132.072 56.168C133.181 57.3627 134.845 58.2373 137.064 58.792C137.704 58.9627 138.365 59.048 139.048 59.048C140.456 59.048 141.736 58.7067 142.888 58.024C144.04 57.3413 144.915 56.4027 145.512 55.208C146.109 54.0133 146.344 52.6907 146.216 51.24C146.045 49.6187 145.491 48.4027 144.552 47.592C143.656 46.7813 142.589 46.248 141.352 45.992C140.157 45.736 138.493 45.5227 136.36 45.352L133.928 45.16C131.752 44.8187 129.896 43.9867 128.36 42.664C126.824 41.2987 125.779 39.72 125.224 37.928C124.84 36.648 124.648 35.3893 124.648 34.152C124.648 32.7867 124.84 31.5067 125.224 30.312C125.821 28.3067 126.803 26.5147 128.168 24.936C129.576 23.3147 131.24 22.0987 133.16 21.288C134.824 20.6053 136.765 20.264 138.984 20.264C142.013 20.264 144.808 20.84 147.368 21.992C149.16 22.888 150.568 24.168 151.592 25.832C152.659 27.4533 153.192 29.3947 153.192 31.656ZM160.767 24.616C160.639 21.8 160.596 19.9013 160.639 18.92C163.284 19.0053 165.289 19.048 166.655 19.048L166.847 27.496C166.42 27.7093 165.652 27.816 164.543 27.816C163.86 27.816 163.348 27.7947 163.007 27.752C162.751 27.752 162.452 27.752 162.111 27.752C161.769 27.7093 161.364 27.7093 160.895 27.752C160.895 27.112 160.852 26.0667 160.767 24.616ZM160.895 32.744V32.68C161.193 32.6373 161.791 32.6373 162.687 32.68C163.967 32.7653 165.375 32.808 166.911 32.808V33C166.911 34.92 166.868 37.8853 166.783 41.896C166.655 45.992 166.591 50.1307 166.591 54.312C166.591 58.2373 166.676 61.736 166.847 64.808C166.249 64.936 165.353 65 164.159 65C162.964 65 162.239 65 161.983 65C161.215 65 160.745 65.0213 160.575 65.064C160.617 63.8267 160.639 61.9493 160.639 59.432V53.672V48.296C160.553 45.3093 160.511 43.0053 160.511 41.384C160.511 38.44 160.639 35.56 160.895 32.744ZM199.873 71.528C199.83 72.2107 199.702 72.808 199.489 73.32C198.678 75.1547 197.654 76.3707 196.417 76.968C195.179 77.5653 193.75 77.928 192.129 78.056C190.251 78.1413 189.078 78.184 188.609 78.184C187.798 78.184 186.753 78.1413 185.473 78.056C182.657 77.8427 180.289 76.904 178.369 75.24C176.449 73.576 175.489 71.4853 175.489 68.968C175.489 68.4133 175.51 67.9867 175.553 67.688C175.766 67.6027 176.342 67.5173 177.281 67.432C178.219 67.3893 179.115 67.368 179.969 67.368C180.694 67.368 181.099 67.4107 181.185 67.496C181.227 67.5813 181.249 67.9013 181.249 68.456C181.249 69.5653 181.505 70.5467 182.017 71.4C182.529 72.2533 183.617 72.808 185.281 73.064C186.134 73.1067 187.243 73.128 188.609 73.128C190.401 73.128 191.702 73.0213 192.513 72.808C193.366 72.6373 193.899 72.296 194.113 71.784C194.369 71.3147 194.454 70.5893 194.369 69.608V67.24V65.128C194.369 64.9147 194.369 64.68 194.369 64.424C194.411 64.168 194.454 63.8053 194.497 63.336C193.771 64.1893 192.918 64.7013 191.937 64.872C190.998 65.0427 189.227 65.128 186.625 65.128H184.193C179.926 65.128 177.153 63.784 175.873 61.096C174.806 59.0907 174.209 56.5947 174.081 53.608C174.081 49.64 174.23 46.3547 174.529 43.752C174.87 41.1493 175.809 38.8027 177.345 36.712C178.923 34.5787 181.398 33.4053 184.769 33.192C186.987 33.1493 188.694 33.2347 189.889 33.448C191.126 33.6187 192.043 33.9387 192.641 34.408C193.238 34.8773 193.729 35.5387 194.113 36.392C194.241 35.7947 194.305 35.24 194.305 34.728C194.305 34.472 194.283 34.216 194.241 33.96C194.241 33.6613 194.262 33.384 194.305 33.128C195.414 33.0427 196.246 33 196.801 33L200.129 33.064C200.299 38.0133 200.385 43.816 200.385 50.472C200.385 57.0853 200.278 62.8453 200.065 67.752C200.065 68.1787 200.043 68.7547 200.001 69.48C200.001 70.2053 199.958 70.888 199.873 71.528ZM180.417 42.088C179.521 44.0507 179.073 46.6107 179.073 49.768V50.536C178.945 52.84 179.329 54.9947 180.225 57C181.121 59.0053 182.785 60.072 185.217 60.2C185.857 60.2427 186.731 60.264 187.841 60.264C190.145 60.264 191.787 59.8587 192.769 59.048C193.793 58.2373 194.369 56.6587 194.497 54.312C194.497 51.2827 194.475 48.8507 194.433 47.016C194.433 42.7067 193.473 40.04 191.553 39.016C190.657 38.504 189.419 38.248 187.841 38.248C186.987 38.248 186.155 38.312 185.345 38.44C182.955 38.8667 181.313 40.0827 180.417 42.088ZM212.851 33C213.278 33 213.491 33.064 213.491 33.192C213.577 33.6613 213.619 34.2587 213.619 34.984V36.584C215.07 35.7307 216.777 34.984 218.739 34.344C220.702 33.6613 222.665 33.32 224.627 33.32C226.974 33.4053 228.894 34.0667 230.387 35.304C231.411 36.2 231.924 39.848 231.924 46.248C231.924 47.8693 231.881 50.3867 231.795 53.8C231.71 57.0427 231.667 59.3893 231.667 60.84C231.667 62.7173 231.689 64.0613 231.731 64.872C230.921 65 229.747 65.064 228.212 65.064H226.099C226.014 64.3813 225.971 63.1867 225.971 61.48V58.728L226.035 54.632C226.121 51.8587 226.142 49.8747 226.099 48.68C226.099 48.424 226.035 47.5493 225.907 46.056C225.822 44.5627 225.587 43.24 225.203 42.088C225.075 40.5947 224.03 39.912 222.067 40.04C219.123 40.0827 216.947 40.488 215.539 41.256C214.174 42.024 213.406 43.4107 213.235 45.416C213.193 45.9707 213.171 47.016 213.171 48.552C213.171 50.9413 213.214 53.5013 213.299 56.232C213.385 57.8533 213.427 59.048 213.427 59.816C213.427 61.3947 213.363 63.016 213.235 64.68V64.936C212.425 65.1067 211.614 65.1707 210.803 65.128C210.035 65.128 209.481 65.128 209.139 65.128C208.457 65.128 207.923 65.1493 207.539 65.192L207.475 54.184C207.39 49.1493 207.347 45.3733 207.347 42.856C207.347 40.808 207.39 37.5653 207.475 33.128C207.987 33.1707 208.585 33.192 209.267 33.192C209.95 33.192 210.505 33.1707 210.931 33.128C211.187 33.128 211.486 33.1067 211.827 33.064C212.169 33.0213 212.51 33 212.851 33ZM258.304 33C258.304 32.9147 258.581 32.872 259.136 32.872C260.117 32.8293 261.376 32.872 262.912 33L264.576 33.128C264.661 33.8107 264.704 34.3227 264.704 34.664V35.304C264.661 36.2853 264.64 37.7573 264.64 39.72C264.64 41.3413 264.683 43.7307 264.768 46.888L264.832 54.056C264.832 57.128 264.747 59.9227 264.576 62.44C264.576 62.568 264.576 62.8453 264.576 63.272C264.576 63.6987 264.533 64.0827 264.448 64.424C264.363 64.7653 264.128 64.9787 263.744 65.064H262.656L260.608 65C260.267 65 259.968 65.0213 259.712 65.064C259.456 65.1067 259.221 65.128 259.008 65.128C258.581 65 258.368 64.5307 258.368 63.72C258.325 63.3787 258.325 62.9947 258.368 62.568C258.453 62.1413 258.496 61.7787 258.496 61.48C257.472 62.888 255.851 63.848 253.632 64.36C251.413 64.872 249.237 65.128 247.104 65.128C245.056 65.128 243.307 64.232 241.856 62.44C240.448 60.6053 239.403 58.3653 238.72 55.72C238.037 53.0747 237.696 50.4933 237.696 47.976C237.696 45.2027 238.165 42.7067 239.104 40.488C240.043 38.2693 241.323 36.52 242.944 35.24C244.608 33.9173 246.443 33.2347 248.448 33.192L250.496 33.128C252.416 33.128 253.995 33.3627 255.232 33.832C256.512 34.2587 257.451 35.0693 258.048 36.264C258.048 35.88 258.091 35.3893 258.176 34.792C258.261 33.9387 258.304 33.3413 258.304 33ZM256.256 39.528C255.445 39.0587 254.016 38.76 251.968 38.632C249.749 38.5893 247.872 39.1653 246.336 40.36C244.843 41.512 243.925 42.8987 243.584 44.52C243.243 45.7573 243.072 47.4213 243.072 49.512C243.285 56.3813 246.059 59.6667 251.392 59.368C253.568 59.368 255.147 58.984 256.128 58.216C257.109 57.448 257.707 56.36 257.92 54.952C258.176 53.544 258.304 51.432 258.304 48.616C258.304 45.544 258.176 43.3893 257.92 42.152C257.664 40.872 257.109 39.9973 256.256 39.528ZM272.87 30.696C272.87 26.1733 273.04 22.0987 273.382 18.472L279.206 18.664C279.206 20.4133 279.163 24.744 279.078 31.656C278.992 40.1893 278.95 46.888 278.95 51.752C278.95 57.128 279.014 61.416 279.142 64.616C278.886 64.9147 278.182 65.064 277.03 65.064L275.046 65C274.662 64.9573 274.192 64.936 273.638 64.936C273.296 64.936 273.083 64.9573 272.998 65C273.254 61.544 273.382 58.0667 273.382 54.568C273.382 51.9227 273.296 47.9547 273.126 42.664C272.955 37.3733 272.87 33.384 272.87 30.696Z" fill="#2B3044"/>
<path d="M90.25 20H70.75V23.1667H90.25V20Z" fill="#FF638D"/>
<path d="M113 20H93.5V23.1667H113V20Z" fill="#FF638D"/>
<path d="M74 23.167H70.75V26.3337H74V23.167Z" fill="#FF638D"/>
<path d="M80.5 23.167H74V26.3337H80.5V23.167Z" fill="white"/>
<path d="M87 23.167H80.5V26.3337H87V23.167Z" fill="black"/>
<path d="M90.25 23.167H87V26.3337H90.25V23.167Z" fill="#FF638D"/>
<path d="M96.75 23.167H93.5V26.3337H96.75V23.167Z" fill="#FF638D"/>
<path d="M103.25 23.167H96.75V26.3337H103.25V23.167Z" fill="white"/>
<path d="M109.75 23.167H103.25V26.3337H109.75V23.167Z" fill="black"/>
<path d="M113 23.167H109.75V26.3337H113V23.167Z" fill="#FF638D"/>
<path d="M74 26.333H61V29.4997H74V26.333Z" fill="#FF638D"/>
<path d="M80.5 26.333H74V29.4997H80.5V26.333Z" fill="white"/>
<path d="M87 26.333H80.5V29.4997H87V26.333Z" fill="black"/>
<path d="M96.75 26.333H87V29.4997H96.75V26.333Z" fill="#FF638D"/>
<path d="M103.25 26.333H96.75V29.4997H103.25V26.333Z" fill="white"/>
<path d="M109.75 26.333H103.25V29.4997H109.75V26.333Z" fill="black"/>
<path d="M113 26.333H109.75V29.4997H113V26.333Z" fill="#FF638D"/>
<path d="M74 29.5H61V32.6667H74V29.5Z" fill="#FF638D"/>
<path d="M80.5 29.5H74V32.6667H80.5V29.5Z" fill="white"/>
<path d="M87 29.5H80.5V32.6667H87V29.5Z" fill="black"/>
<path d="M96.75 29.5H87V32.6667H96.75V29.5Z" fill="#FF638D"/>
<path d="M103.25 29.5H96.75V32.6667H103.25V29.5Z" fill="white"/>
<path d="M109.75 29.5H103.25V32.6667H109.75V29.5Z" fill="black"/>
<path d="M113 29.5H109.75V32.6667H113V29.5Z" fill="#FF638D"/>
<path d="M64.25 32.667H61V35.8337H64.25V32.667Z" fill="#FF638D"/>
<path d="M74 32.667H70.75V35.8337H74V32.667Z" fill="#FF638D"/>
<path d="M80.5 32.667H74V35.8337H80.5V32.667Z" fill="white"/>
<path d="M87 32.667H80.5V35.8337H87V32.667Z" fill="black"/>
<path d="M90.25 32.667H87V35.8337H90.25V32.667Z" fill="#FF638D"/>
<path d="M96.75 32.667H93.5V35.8337H96.75V32.667Z" fill="#FF638D"/>
<path d="M103.25 32.667H96.75V35.8337H103.25V32.667Z" fill="white"/>
<path d="M109.75 32.667H103.25V35.8337H109.75V32.667Z" fill="black"/>
<path d="M113 32.667H109.75V35.8337H113V32.667Z" fill="#FF638D"/>
<path d="M90.25 35.833H70.75V38.9997H90.25V35.833Z" fill="#FF638D"/>
<path d="M113 35.833H93.5V38.9997H113V35.833Z" fill="#FF638D"/>
</svg>
